<?xml version="1.0" encoding="utf-8"?>
<!-- Generator: Adobe Illustrator 21.1.0, SVG Export Plug-In . SVG Version: 6.00 Build 0)  -->
<svg version="1.1" xmlns="http://www.w3.org/2000/svg" xmlns:xlink="http://www.w3.org/1999/xlink" x="0px" y="0px"
	 viewBox="0 0 800 800" style="enable-background:new 0 0 800 800;" xml:space="preserve">
<style type="text/css">
	.st0{fill:#D74034;}
	.st1{fill:none;}
	.st2{fill:#FFFFFF;}
</style>
<g id="Full_Logo_-_White_on_Red">
</g>
<g id="Full_Logo_-_Red_on_Transparent">
</g>
<g id="Full_Logo_-_White_on_Black">
</g>
<g id="Full_Logo_-_Black_on_Transparent">
</g>
<g id="Pictorial_-_White_on_Red">
</g>
<g id="Pictorial_-_White_on_Transparent">
	<g>
		<polygon class="st1" points="159.6,459.6 117.6,419.5 96.5,487.9 		"/>
		<polygon class="st1" points="108.1,413.4 88.3,413.4 102.3,430.6 		"/>
		<path class="st1" d="M246.4,429.8c9.3,5.5,18.9,11,28.2,16.4l-28.7-31.8c0,0.1,0,0.2,0,0.3c-0.4,4.6-0.8,8.6-0.8,12.6
			C245.1,428.1,245.9,429.5,246.4,429.8z"/>
		<polygon class="st1" points="179.1,312.3 61.8,331.5 115.8,399 		"/>
		<polygon class="st1" points="301.9,478 242.3,542.7 324.3,512.4 		"/>
		<polygon class="st1" points="385.9,400.4 252.1,404.5 303.7,461.7 		"/>
		<path class="st1" d="M245.1,388.6c1.5-1.3,2.9-2.6,4.2-4c0.6-0.7,1.3-1.3,2-1.9c1.4-1.3,3.6-3.3,3.7-4.4
			c0.4-8.5,0.4-17.3,0.4-25.8L245.1,388.6z"/>
		<polygon class="st1" points="390.3,482.3 343.8,516.4 390.3,548.4 		"/>
		<polygon class="st1" points="202,311.4 236.4,377.4 253.7,317.4 		"/>
		<polygon class="st1" points="257.1,393 393.3,388.8 362.9,298 		"/>
		<polygon class="st1" points="378.4,477.1 313.4,475 335.3,508.7 		"/>
		<polygon class="st1" points="734.1,352.7 663.8,366.3 663.8,435 		"/>
		<path class="st1" d="M267.5,340c0,7.8,0,15.7,0,23.7l0,4.8l79.9-71.7l-7,1.8c-23.3,6-47.4,12.2-71,18.6c-0.5,0.4-1.5,2-1.6,3.1
			c-0.4,5.2-0.4,10.7-0.4,15.9C267.6,337.4,267.6,338.7,267.5,340z"/>
		<path class="st1" d="M652,354c2.7,0.8,5.4,1.7,7.6,1.3c10.5-1.8,21.2-3.8,31.7-5.8h-53.7c4.6,1.5,9,2.9,13.5,4.2L652,354z"/>
		<polygon class="st1" points="272.6,304.6 352.4,283.8 304.1,246.8 		"/>
		<polygon class="st1" points="602.1,399.5 646,364 607.4,351.9 		"/>
		<path class="st1" d="M595.6,345.7c-12.3-6.6-24.9-13.1-37.1-19.5l-4.1-2.1l37,69.7c1.7-15.2,3.5-30.9,5-46.3
			C596.5,347,596,345.9,595.6,345.7z"/>
		<polygon class="st1" points="651.3,374.2 605,411.6 651.3,437.9 		"/>
		<path class="st1" d="M403,554.6c0.1,0.1,0.6,0.5,2.4,0.5c1,0,2.1,0,3.1,0c3,0,6,0,9,0.1c2.9,0,5.7,0.1,8.6,0.1
			c18.5,0,37.1,0,56.5,0l15.3,0l-95.2-70.4l0,13.2c0,17.9,0,36.5,0,54.6C402.6,553.6,402.8,554.3,403,554.6z"/>
		<polygon class="st1" points="649,449.5 597.2,420.2 532.3,541.7 		"/>
		<path class="st1" d="M504.4,408.2c-2.6,2-5.1,4.1-7.6,6c-9.4,7.5-18.4,14.5-27.5,21.3c-2.8,2.1-3.1,3.3-1.4,7
			c10.2,22.2,20.4,44.8,30.3,66.7c3.6,7.9,7.1,15.8,10.7,23.6L504.4,408.2z"/>
		<polygon class="st1" points="456.4,444.5 405.2,472.7 501.4,543.8 		"/>
		<polygon class="st1" points="465.5,424.4 501.2,396.3 465.5,358.5 		"/>
		<polygon class="st1" points="465.1,327.9 514.8,260.3 462.5,250.6 		"/>
		<polygon class="st1" points="586.4,416.6 515.5,403.8 520.3,540.1 		"/>
		<polygon class="st1" points="469.7,346.5 507.5,386.5 531.7,321.7 		"/>
		<polygon class="st1" points="517.2,392.6 584.6,404.8 542.4,325.3 		"/>
		<path class="st1" d="M174.2,453.5c14.1-6,28.3-12.4,42.1-18.5l3.2-1.4L134.1,417c1.1,1.2,2.3,2.3,3.4,3.4
			c11.4,11.6,22.1,22.6,33.1,33.4C171.2,454.1,173.1,454,174.2,453.5z"/>
		<polygon class="st1" points="103.6,401.4 89.2,384.2 83.6,401.4 		"/>
		<path class="st1" d="M524.7,273c-0.5-1.7-1-3.3-1.6-5l-45.9,62.4c20.1-7,39.3-14.7,57.2-22.1c0.3-0.4,0.7-1.4,0.7-1.8
			C531.8,295.5,528.4,284.5,524.7,273z"/>
		<polygon class="st1" points="413.6,286.4 453.9,329.6 451.3,254.7 		"/>
		<polygon class="st1" points="293.8,470.2 242.8,440.9 230.6,538.8 		"/>
		<polygon class="st1" points="231.3,440.7 219.5,446.1 228.4,464.8 		"/>
		<polygon class="st1" points="235.2,406.2 162.1,410.9 233.6,424.8 		"/>
		<polygon class="st1" points="127.7,401.9 232.9,395 191.1,315 		"/>
		<polygon class="st1" points="372.8,291.8 397.2,365 399.4,291.8 		"/>
		<path class="st1" d="M321,462.8c20.5,1.7,40.9,2.4,60.8,3.1l6.1,0.2c1.8,0.1,2,0.1,2.2-3.2c0.4-4.8,0.9-9.5,1.3-14.3
			c0.4-4.1,0.8-8.1,1.2-12.2c0.7-7.6,1.3-15.1,2-23.2l0.5-5.6L321,462.8z"/>
		<polygon class="st1" points="408.1,381.6 451.9,344 410.4,299.6 		"/>
		<polygon class="st1" points="448.7,435.9 406.8,404.7 401.4,461.9 		"/>
		<polygon class="st1" points="453.4,357.4 411.1,393.9 453.4,425.4 		"/>
		<path class="st2" d="M753.4,342.5c-0.8-1.9-2.9-3.1-6.8-3.8c-1.8-0.3-3.6-0.3-5.4-0.3c-0.6,0-1.1,0-1.7,0l-29.3-0.2
			c-32.6-0.2-66.2-0.4-99.3-0.7c-3.7,0-7.1-0.8-9.7-2.1c-17.1-8.6-34-17.4-50.1-26.1c-2-1.1-4-3.5-4.8-5.7
			c-4.4-13.2-8.9-27.2-14.3-45.6c-1.5-4.9-4.2-7.3-9.3-8.2l-1.4-0.2c-18-3.1-36.6-6.3-54.7-10.2c-9.5-2-16.1-0.2-22,6.1
			c-4.4,4.7-31.1,29.6-40.7,33.1c-9.2,3.3-31.4,0.9-33.1,0.8c-2.8-0.6-7.9-2-9.7-3.3c-12.6-9.4-25.3-19.1-37.6-28.6
			c-4.4-3.4-8.8-6.8-13.2-10.2c-4.3-3.3-6.4-4.9-9-4.4c-2.7,0.6-4,3-6.7,7.9c-2.4,4.4-4.9,8.9-7.3,13.3
			c-8.7,15.9-17.7,32.4-26.4,48.7c-1.5,2.9-2.8,3.6-5.8,3.2c-9.4-1.3-19-2.3-28.2-3.3l-1.6-0.2c-2.8-0.3-5.6-0.7-8.4-1
			c-14.5-1.8-29.5-3.6-44.7,0.3c-5.4,1.4-11.2,2.2-16.7,3c-2.6,0.4-5.3,0.7-7.9,1.2l-24,3.9c-22.5,3.6-45.7,7.4-68.6,11.2
			c-3.4,0.6-7.1,1.4-8.2,4.3c-1,2.6,0.5,5.4,3.4,9.1c2.7,3.5,5.5,7,8.3,10.4c6.6,8.4,13.5,17,20,25.7c1.1,1.5,1.7,4.7,1.2,6.6
			c-1.9,7.1-4.4,14.9-7.9,24.4c-1.8,4.8-1.1,8.6,2.5,12.7c8.2,9.4,15.3,18.1,21.8,26.7c1,1.3,1.5,4.3,1,6.1
			c-2.5,9.2-5.3,18.5-8,27.6c-1.7,5.8-3.5,11.8-5.2,17.7l-0.1,0.2c-0.8,2.9-2,7,0.3,9.2c1.9,1.8,5.2,1.6,10.1-0.5
			c16-6.9,32.2-14.1,47.8-21.1c5.2-2.3,10.3-4.6,15.5-6.9c12.9-5.7,25.8-11.4,38.9-17.2l12.9-5.7l3.1,6.6
			c4.4,9.3,8.6,18.1,12.7,26.9c0.5,1,0.6,2.4,0.5,3.8c-2.4,20.3-5,41.4-7.6,62.7c-0.5,4.1-0.8,7.7,1.6,9.6c2.3,1.9,5.8,0.8,9.8-0.6
			l16-5.9c26.3-9.7,53.4-19.6,80.1-29.7c4.8-1.8,7.9-1.5,11.7,1.3c17.4,12.5,35.3,24.7,52.6,36.6l3.8,2.6c2.1,1.4,4.9,1.7,6.9,1.8
			l9.6,0.1c32.9,0.4,66.9,0.8,100.4,0.9c0,0,0,0,0,0c4.6,0,9.9-1.8,13.5-4.7c36.4-28.4,73.2-57.5,108.7-85.6l10.1-8
			c2.1-1.7,4.4-3.3,6.6-5c5.7-4.2,11.6-8.6,16.3-14c23.4-26.7,46.8-54.2,69.4-80.8c5.3-6.3,10.7-12.6,16.1-18.9
			C751.4,349.7,754.7,345.6,753.4,342.5z M272.6,304.6l31.5-57.8l48.3,37L272.6,304.6z M269.5,317.2c23.6-6.3,47.7-12.5,71-18.6
			l7-1.8l-79.9,71.7l0-4.8c0-8,0-15.9,0-23.7c0-1.3,0-2.6,0-3.9c0-5.2,0-10.6,0.4-15.9C268,319.2,269,317.5,269.5,317.2z
			 M734.1,352.7L663.8,435v-68.7L734.1,352.7z M637.5,349.5h53.7c-10.4,2-21.1,4-31.7,5.8c-2.2,0.4-4.9-0.5-7.6-1.3l-1-0.3
			C646.5,352.4,642,351,637.5,349.5z M554.4,324l4.1,2.1c12.2,6.4,24.8,12.9,37.1,19.5c0.3,0.3,0.8,1.3,0.8,1.7
			c-1.5,15.4-3.3,31.1-5,46.3L554.4,324z M649,449.5l-116.7,92.2l65-121.5L649,449.5z M602.1,399.5l5.3-47.6L646,364L602.1,399.5z
			 M651.3,374.2v63.7L605,411.6L651.3,374.2z M402.6,498l0-13.2l95.2,70.4l-15.3,0c-19.4,0-37.9,0-56.5,0c-2.9,0-5.7,0-8.6-0.1
			c-2.9,0-5.9-0.1-9-0.1c-1,0-2.1,0-3.1,0c-1.7,0-2.2-0.3-2.4-0.5c-0.3-0.3-0.4-1-0.4-2C402.7,534.5,402.7,515.9,402.6,498z
			 M390.3,482.3v66.1l-46.5-31.9L390.3,482.3z M378.4,477.1l-43,31.7l-22-33.7L378.4,477.1z M301.9,478l22.5,34.4l-82,30.3
			L301.9,478z M108.1,413.4l-5.7,17.2l-14-17.2H108.1z M159.6,459.6l-63.2,28.4l21.2-68.5L159.6,459.6z M179.1,312.3L115.8,399
			l-54.1-67.5L179.1,312.3z M202,311.4l51.7,6l-17.3,60.1L202,311.4z M257.1,393L362.9,298l30.3,90.8L257.1,393z M385.9,400.4
			l-82.2,61.3l-51.6-57.1L385.9,400.4z M255,378.2c-0.1,1.1-2.2,3.1-3.7,4.4c-0.7,0.6-1.4,1.3-2,1.9c-1.3,1.4-2.8,2.7-4.2,4
			l10.3-36.1C255.4,361,255.4,369.7,255,378.2z M245.1,427.3c0.1-4,0.4-7.9,0.8-12.6c0-0.1,0-0.2,0-0.3l28.7,31.8
			c-9.3-5.3-18.9-10.8-28.2-16.4C245.9,429.5,245.1,428.1,245.1,427.3z M137.5,420.5c-1.1-1.1-2.2-2.3-3.4-3.4l85.4,16.5l-3.2,1.4
			c-13.8,6.1-28,12.5-42.1,18.5c-1.1,0.5-3,0.5-3.6,0.3C159.6,443,148.9,432.1,137.5,420.5z M235.2,406.2l-1.6,18.6l-71.5-13.8
			L235.2,406.2z M127.7,401.9l63.5-86.9l41.8,80L127.7,401.9z M231.3,440.7l-2.9,24.1l-8.9-18.7L231.3,440.7z M293.8,470.2
			l-63.2,68.5l12.2-97.9L293.8,470.2z M372.8,291.8h26.6l-2.2,73.2L372.8,291.8z M392.6,436.4c-0.4,4.1-0.8,8.1-1.2,12.2
			c-0.5,4.8-0.9,9.5-1.3,14.3c-0.3,3.3-0.5,3.3-2.2,3.2l-6.1-0.2c-19.8-0.7-40.2-1.4-60.8-3.1l74.1-55.2l-0.5,5.6
			C393.9,421.2,393.3,428.8,392.6,436.4z M448.7,435.9l-47.3,26.1l5.4-57.3L448.7,435.9z M408.1,381.6l2.4-82l41.4,44.4L408.1,381.6
			z M453.4,357.4v68l-42.3-31.5L453.4,357.4z M413.6,286.4l37.7-31.7l2.6,74.9L413.6,286.4z M465.1,327.9l-2.6-77.3l52.3,9.7
			L465.1,327.9z M469.7,346.5l62-24.8l-24.3,64.8L469.7,346.5z M465.5,424.4v-65.9l35.7,37.8L465.5,424.4z M467.8,442.6
			c-1.7-3.7-1.5-4.9,1.4-7c9.2-6.8,18.1-13.9,27.5-21.3c2.5-2,5.1-4,7.6-6l4.4,124.7c-3.6-7.9-7.1-15.8-10.7-23.6
			C488.2,487.4,478,464.8,467.8,442.6z M456.4,444.5l44.9,99.4l-96.2-71.1L456.4,444.5z M586.4,416.6l-66,123.5l-4.8-136.4
			L586.4,416.6z M517.2,392.6l25.2-67.3l42.2,79.5L517.2,392.6z M477.2,330.4l45.9-62.4c0.5,1.7,1.1,3.4,1.6,5
			c3.6,11.6,7.1,22.5,10.4,33.5c0,0.4-0.4,1.4-0.7,1.8C516.6,315.7,497.4,323.4,477.2,330.4z M103.6,401.4h-20l5.6-17.2L103.6,401.4
			z"/>
	</g>
</g>
<g id="Pictorial_-_Red_on_Transparent">
</g>
<g id="Pictorial_-_Black_on_Transparent">
</g>
<g id="Pictorial_-_White_on_Black">
</g>
</svg>
